<?xml version="1.0" encoding="UTF-8"?>
<svg version="1.1" xmlns="http://www.w3.org/2000/svg" width="40" height="41">
<path d="M0 0 C-1.50946511 3.18086518 -3.07941825 5.29869906 -5.625 7.75 C-6.25664062 8.36359375 -6.88828125 8.9771875 -7.5390625 9.609375 C-8.26222656 10.29773438 -8.26222656 10.29773438 -9 11 C-8.06409496 12.1055189 -7.12620142 13.20935453 -6.1875 14.3125 C-5.66542969 14.92738281 -5.14335937 15.54226562 -4.60546875 16.17578125 C-3.12827531 17.85424679 -1.59960869 19.43882034 0 21 C-2.63611405 26.63404767 -5.43932514 30.94770781 -11 34 C-18.24840236 35.14968974 -25.71324702 34.5545402 -33 34 C-31.49053489 30.81913482 -29.92058175 28.70130094 -27.375 26.25 C-26.42753906 25.32960938 -26.42753906 25.32960938 -25.4609375 24.390625 C-24.97882812 23.93171875 -24.49671875 23.4728125 -24 23 C-24.93590504 21.8944811 -25.87379858 20.79064547 -26.8125 19.6875 C-27.33457031 19.07261719 -27.85664063 18.45773438 -28.39453125 17.82421875 C-29.94331789 15.97265696 -29.94331789 15.97265696 -31.76171875 14.51953125 C-33 13 -33 13 -32.8828125 11.109375 C-26.83637492 -3.33786523 -13.22492279 -0.95951629 0 0 Z M-22 12 C-22 15.3 -22 18.6 -22 22 C-18.7 22 -15.4 22 -12 22 C-12 18.7 -12 15.4 -12 12 C-15.3 12 -18.6 12 -22 12 Z " fill="#FFFFFF" transform="translate(37,4)"/>
</svg>
